<svg viewBox="-768 -361 1536 722" width="1536" height="722" style="background-color: rgb(255, 255, 255);" xmlns="http://www.w3.org/2000/svg"><path d="M-239.6671050397062,-0.3767225342409354L-262.97282040173025,-3.6408232961899394M-262.97282040173025,-118.10728516361468L-262.97282040173025,-3.6408232961899394M-262.97282040173025,-3.6408232961899394L-307.00625074086815,38.27840664555306M-239.6671050397062,-114.84318440166568L-239.6671050397062,-0.3767225342409354M-239.6671050397062,-0.3767225342409354L-283.70053537884405,41.542507407502065" style="fill:none;stroke:rgb(0,0,0);stroke-width:1;stroke-linecap:round"></path><path d="M-239.6671050397062,-0.3767225342409284L-262.97282040173025,-3.6408232961899376L-262.97282040173025,-118.10728516361466zM-239.6671050397062,-114.84318440166565L-239.6671050397062,-0.3767225342409284L-262.97282040173025,-118.10728516361466z" style="fill:rgb(238,238,238); fill-opacity: 0.4"></path><path d="M-253.76473641454797,9.514584491674663L-277.07045177657204,6.250483729725659M-277.07045177657204,-17.016579679493024L-277.07045177657204,6.250483729725659M-277.07045177657204,6.250483729725659L-286.02092162697016,14.771209933788734" style="fill:none;stroke:rgb(0,0,0);stroke-width:1;stroke-linecap:round"></path><path d="M-307.00625074086815,38.27840664555306L-262.97282040173025,-3.6408232961899376L-239.6671050397062,-0.3767225342409284z" style="fill:rgb(238,238,238); fill-opacity: 0.4"></path><path d="M-253.76473641454797,9.514584491674658L-277.07045177657204,6.250483729725649L-277.07045177657204,-17.016579679493024z" style="fill:rgb(153,221,255); fill-opacity: 0.4"></path><path d="M-106.12579174401571,9.713755401409426L-202.95285223156915,-3.847436649777489M-202.95285223156915,-88.61005457276075L-202.95285223156915,-3.847436649777489M-202.95285223156915,-3.847436649777489L-235.55968545401555,27.193827430638883M-253.76473641454797,-13.752478917544021L-253.76473641454797,9.514584491674663M-253.76473641454797,9.514584491674663L-262.7152062649461,18.03531069573774M-253.76473531045843,-13.752477759650558L-253.76473531045843,9.51458564956812M-253.76473531045843,9.51458564956812L-262.71520496686037,18.035311668949436M-253.76473531045843,9.51458564956812L-216.70609098570011,-1.9827531016681466M-253.76473641454797,-13.752478917544021L-277.07045177657204,-17.016579679493024M-277.07045177657204,-17.016579679493024L-286.02092162697016,-8.49585347542995M-239.6671050397062,-114.84318440166568L-262.97282040173025,-118.10728516361468M-262.97282040173025,-118.10728516361468L-307.00625074086815,-76.18805522187168" style="fill:none;stroke:rgb(0,0,0);stroke-width:1;stroke-linecap:round"></path><path d="M-286.02092162697016,14.771209933788729L-277.07045177657204,6.250483729725649L-253.76473641454797,9.514584491674658zM-253.76473641454797,-13.752478917544016L-253.76473641454797,9.514584491674658L-277.07045177657204,-17.016579679493024zM-277.07045177657204,-17.016579679493024L-277.07045177657204,6.250483729725649L-286.02092162697016,-8.49585347542995z" style="fill:rgb(153,221,255); fill-opacity: 0.4"></path><path d="M-253.76473641454797,-13.752478917544021L-262.7152062649461,-5.2317527134809465M-253.76473531045843,-13.752477759650558L-262.71520496686037,-5.231751740269246M-253.76473531045843,-13.752477759650558L-216.70609098570011,-1.9827531016681466" style="fill:none;stroke:rgb(0,0,0);stroke-width:1;stroke-linecap:round"></path><path d="M-277.07045177657204,6.250483729725649L-286.02092162697016,14.771209933788729L-286.02092162697016,-8.49585347542995z" style="fill:rgb(153,221,255); fill-opacity: 0.4"></path><path d="M-239.6671050397062,-114.84318440166568L-283.70053537884405,-72.92395445992268" style="fill:none;stroke:rgb(0,0,0);stroke-width:1;stroke-linecap:round"></path><path d="M-253.7647366249259,-13.75247894700867L-253.7647366249259,9.514584462210003L-262.715206475324,18.035310666273084z" style="fill:rgb(255,187,187); fill-opacity: 0.4"></path><path d="M-262.7152062649461,18.03531069573774L-253.76473641454797,9.514584491674658L-253.76473641454797,-13.752478917544016zM-262.7152062649461,18.03531069573774L-286.02092162697016,14.771209933788729L-253.76473641454797,9.514584491674658z" style="fill:rgb(153,221,255); fill-opacity: 0.4"></path><path d="M-286.02092162697016,-8.49585347542995L-286.02092162697016,14.771209933788734M-286.02092162697016,14.771209933788734L-262.7152062649461,18.03531069573774" style="fill:none;stroke:rgb(0,0,0);stroke-width:1;stroke-linecap:round"></path><path d="M-262.7152062649461,-5.231752713480941L-253.76473641454797,-13.752478917544016L-277.07045177657204,-17.016579679493024z" style="fill:rgb(153,221,255); fill-opacity: 0.4"></path><path d="M-283.70053537884405,41.542507407502065L-239.6671050397062,-0.3767225342409284L-239.6671050397062,-114.84318440166565z" style="fill:rgb(238,238,238); fill-opacity: 0.4"></path><path d="M-253.7647366249259,9.514584462210003L-253.7647366249259,-13.75247894700867L-216.70609253549515,-1.9827528561178076z" style="fill:rgb(255,187,187); fill-opacity: 0.4"></path><path d="M-286.02092162697016,-8.49585347542995L-262.7152062649461,-5.231752713480941L-277.07045177657204,-17.016579679493024z" style="fill:rgb(153,221,255); fill-opacity: 0.4"></path><path d="M-262.715206475324,18.035310666273084L-253.7647366249259,9.514584462210003L-216.70609253549515,-1.9827528561178076zM-253.7647366249259,-13.75247894700867L-262.715206475324,18.035310666273084L-262.715206475324,-5.231752742945597z" style="fill:rgb(255,187,187); fill-opacity: 0.4"></path><path d="M-262.7152062649461,-5.231752713480941L-262.7152062649461,18.03531069573774L-253.76473641454797,-13.752478917544016z" style="fill:rgb(153,221,255); fill-opacity: 0.4"></path><path d="M-262.97282040173025,-118.10728516361466L-262.97282040173025,-3.6408232961899376L-307.00625074086815,-76.18805522187168z" style="fill:rgb(238,238,238); fill-opacity: 0.4"></path><path d="M-262.7152062649461,-5.2317527134809465L-262.7152062649461,18.03531069573774M-262.71520496686037,18.035311668949436L-262.71520496686037,-5.231751740269246M-262.71520496686037,18.035311668949436L-216.70609098570011,-1.9827531016681466" style="fill:none;stroke:rgb(0,0,0);stroke-width:1;stroke-linecap:round"></path><path d="M-106.12579174401571,9.713755401409431L-202.95285223156915,-3.8474366497774897L-202.95285223156915,-88.61005457276075z" style="fill:rgb(238,238,238); fill-opacity: 0.4"></path><path d="M-286.02092162697016,14.771209933788729L-262.7152062649461,18.03531069573774L-262.7152062649461,-5.231752713480941zM-286.02092162697016,-8.49585347542995L-286.02092162697016,14.771209933788729L-262.7152062649461,-5.231752713480941z" style="fill:rgb(153,221,255); fill-opacity: 0.4"></path><path d="M-286.02092162697016,-8.49585347542995L-262.7152062649461,-5.2317527134809465M-111.88155249894567,-13.49727322674043L-208.7086129864991,-27.05846527792735M-208.7086129864991,-37.63440319120857L-208.7086129864991,-27.05846527792735M-208.7086129864991,-27.05846527792735L-212.7770083730437,-23.185407912444134" style="fill:none;stroke:rgb(0,0,0);stroke-width:1;stroke-linecap:round"></path><path d="M-253.7647366249259,-13.75247894700867L-262.715206475324,-5.231752742945597L-216.70609253549515,-1.9827528561178076z" style="fill:rgb(255,187,187); fill-opacity: 0.4"></path><path d="M-111.88155249894567,-24.073211140021648L-208.7086129864991,-37.63440319120857M-208.7086129864991,-37.63440319120857L-212.7770083730437,-33.76134582572536" style="fill:none;stroke:rgb(0,0,0);stroke-width:1;stroke-linecap:round"></path><path d="M-262.715206475324,-5.231752742945597L-262.715206475324,18.035310666273084L-216.70609253549515,-1.9827528561178076z" style="fill:rgb(255,187,187); fill-opacity: 0.4"></path><path d="M-208.7086129864991,-37.63440319120857L-208.7086129864991,-27.05846527792735L-212.7770083730437,-33.76134582572536z" style="fill:rgb(153,221,255); fill-opacity: 0.4"></path><path d="M-262.71520496686037,-5.231751740269246L-216.70609098570011,-1.9827531016681466" style="fill:none;stroke:rgb(0,0,0);stroke-width:1;stroke-linecap:round"></path><path d="M-208.7086129864991,-27.05846527792735L-212.7770083730437,-23.185407912444138L-212.7770083730437,-33.76134582572536z" style="fill:rgb(153,221,255); fill-opacity: 0.4"></path><path d="M-106.12579174401571,-75.04886252157382L-202.95285223156915,-88.61005457276075M-202.95285223156915,-88.61005457276075L-235.55968545401555,-57.56879049234436" style="fill:none;stroke:rgb(0,0,0);stroke-width:1;stroke-linecap:round"></path><path d="M-283.70053537884405,41.542507407502065L-307.00625074086815,38.27840664555306L-239.6671050397062,-0.3767225342409284z" style="fill:rgb(238,238,238); fill-opacity: 0.4"></path><path d="M-106.12579174401571,-75.04886252157382L-106.12579174401571,9.713755401409426M-106.12579174401571,9.713755401409426L-138.7326249664621,40.755019481825805M-212.7770083730437,-33.76134582572536L-212.7770083730437,-23.185407912444134M-212.7770083730437,-23.185407912444134L-115.94994788549027,-9.624215861257216" style="fill:none;stroke:rgb(0,0,0);stroke-width:1;stroke-linecap:round"></path><path d="M-235.55968545401555,27.193827430638883L-202.95285223156915,-3.8474366497774897L-106.12579174401571,9.713755401409431z" style="fill:rgb(238,238,238); fill-opacity: 0.4"></path><path d="M-111.88155249894567,-13.49727322674043L-208.7086129864991,-27.05846527792735L-208.7086129864991,-37.63440319120857z" style="fill:rgb(153,221,255); fill-opacity: 0.4"></path><path d="M-212.7770083730437,-33.76134582572536L-115.94994788549027,-20.200153774538435" style="fill:none;stroke:rgb(0,0,0);stroke-width:1;stroke-linecap:round"></path><path d="M-212.7770083730437,-23.185407912444138L-208.7086129864991,-27.05846527792735L-111.88155249894567,-13.49727322674043z" style="fill:rgb(153,221,255); fill-opacity: 0.4"></path><path d="M-283.70053537884405,-72.92395445992267L-239.6671050397062,-114.84318440166565L-262.97282040173025,-118.10728516361466zM-262.97282040173025,-3.6408232961899376L-307.00625074086815,38.27840664555306L-307.00625074086815,-76.18805522187168zM-106.12579174401571,-75.04886252157382L-106.12579174401571,9.713755401409431L-202.95285223156915,-88.61005457276075z" style="fill:rgb(238,238,238); fill-opacity: 0.4"></path><path d="M-212.7770083730437,-33.76134582572536L-115.94994788549027,-20.200153774538435L-208.7086129864991,-37.63440319120857z" style="fill:rgb(153,221,255); fill-opacity: 0.4"></path><path d="M-202.95285223156915,-88.61005457276075L-202.95285223156915,-3.8474366497774897L-235.55968545401555,-57.56879049234437z" style="fill:rgb(238,238,238); fill-opacity: 0.4"></path><path d="M-212.7770083730437,-33.76134582572536L-212.7770083730437,-23.185407912444138L-115.94994788549027,-20.200153774538435zM-111.88155249894567,-24.073211140021655L-111.88155249894567,-13.49727322674043L-208.7086129864991,-37.63440319120857zM-115.94994788549027,-9.624215861257213L-212.7770083730437,-23.185407912444138L-111.88155249894567,-13.49727322674043zM-115.94994788549027,-20.200153774538435L-111.88155249894567,-24.073211140021655L-208.7086129864991,-37.63440319120857zM-212.7770083730437,-23.185407912444138L-115.94994788549027,-9.624215861257213L-115.94994788549027,-20.200153774538435z" style="fill:rgb(153,221,255); fill-opacity: 0.4"></path><path d="M51.04126339137599,27.362251331685428L-66.59288880947099,10.886905268904764M-66.59288880947099,-58.82623014121006L-66.59288880947099,10.886905268904764M-66.59288880947099,10.886905268904764L-93.41042507052462,36.41683696716156M-111.8815503430304,-24.07321108053193L-111.8815503430304,-13.497273167250707M-111.8815503430304,-13.497273167250707L-115.94994611756742,-9.624215432403957M-111.8815503430304,-13.497273167250707L-72.99974865342685,-10.959435106191808M-111.88155249894567,-24.073211140021648L-111.88155249894567,-13.49727322674043M-111.88155249894567,-13.49727322674043L-115.94994788549027,-9.624215861257216M-307.00625074086815,-76.18805522187168L-307.00625074086815,38.27840664555306M-307.00625074086815,38.27840664555306L-283.70053537884405,41.542507407502065" style="fill:none;stroke:rgb(0,0,0);stroke-width:1;stroke-linecap:round"></path><path d="M-202.95285223156915,-3.8474366497774897L-235.55968545401555,27.193827430638883L-235.55968545401555,-57.56879049234437z" style="fill:rgb(238,238,238); fill-opacity: 0.4"></path><path d="M-111.8815503430304,-24.07321108053193L-115.94994611756742,-20.200153345685177M-111.8815503430304,-24.07321108053193L-72.99974865342685,-10.959435106191808M-111.88155249894567,-24.073211140021648L-115.94994788549027,-20.200153774538435" style="fill:none;stroke:rgb(0,0,0);stroke-width:1;stroke-linecap:round"></path><path d="M-111.88155281033588,-24.07321118363366L-111.88155281033588,-13.497273270352435L-115.94994819688048,-9.62421590486922z" style="fill:rgb(255,187,187); fill-opacity: 0.4"></path><path d="M-115.94994788549027,-9.624215861257213L-111.88155249894567,-13.49727322674043L-111.88155249894567,-24.073211140021655z" style="fill:rgb(153,221,255); fill-opacity: 0.4"></path><path d="M-283.70053537884405,-72.92395445992267L-283.70053537884405,41.542507407502065L-239.6671050397062,-114.84318440166565z" style="fill:rgb(238,238,238); fill-opacity: 0.4"></path><path d="M-106.12579174401571,-75.04886252157382L-138.7326249664621,-44.00759844115745" style="fill:none;stroke:rgb(0,0,0);stroke-width:1;stroke-linecap:round"></path><path d="M-111.88155281033588,-24.07321118363366L-115.94994819688048,-9.62421590486922L-115.94994819688048,-20.20015381815044z" style="fill:rgb(255,187,187); fill-opacity: 0.4"></path><path d="M-115.94994788549027,-20.200153774538435L-115.94994788549027,-9.624215861257213L-111.88155249894567,-24.073211140021655z" style="fill:rgb(153,221,255); fill-opacity: 0.4"></path><path d="M-115.94994788549027,-20.200153774538435L-115.94994788549027,-9.624215861257216M-115.94994611756742,-9.624215432403957L-115.94994611756742,-20.200153345685177M-115.94994611756742,-9.624215432403957L-72.99974865342685,-10.959435106191808" style="fill:none;stroke:rgb(0,0,0);stroke-width:1;stroke-linecap:round"></path><path d="M-111.88155281033588,-13.497273270352435L-111.88155281033588,-24.07321118363366L-72.99975102862152,-10.959434955707335zM-115.94994819688048,-9.62421590486922L-111.88155281033588,-13.497273270352435L-72.99975102862152,-10.959434955707335z" style="fill:rgb(255,187,187); fill-opacity: 0.4"></path><path d="M-283.70053537884405,-72.92395445992268L-283.70053537884405,41.542507407502065" style="fill:none;stroke:rgb(0,0,0);stroke-width:1;stroke-linecap:round"></path><path d="M-138.7326249664621,40.7550194818258L-106.12579174401571,9.713755401409431L-106.12579174401571,-75.04886252157382z" style="fill:rgb(238,238,238); fill-opacity: 0.4"></path><path d="M-115.94994611756742,-20.200153345685177L-72.99974865342685,-10.959435106191808" style="fill:none;stroke:rgb(0,0,0);stroke-width:1;stroke-linecap:round"></path><path d="M-111.88155281033588,-24.07321118363366L-115.94994819688048,-20.20015381815044L-72.99975102862152,-10.959434955707335z" style="fill:rgb(255,187,187); fill-opacity: 0.4"></path><path d="M-307.00625074086815,-76.18805522187168L-283.70053537884405,-72.92395445992267L-262.97282040173025,-118.10728516361466zM-138.7326249664621,40.7550194818258L-235.55968545401555,27.193827430638883L-106.12579174401571,9.713755401409431z" style="fill:rgb(238,238,238); fill-opacity: 0.4"></path><path d="M-115.94994819688048,-20.20015381815044L-115.94994819688048,-9.62421590486922L-72.99975102862152,-10.959434955707335z" style="fill:rgb(255,187,187); fill-opacity: 0.4"></path><path d="M48.24219013718884,2.16758877079301L-69.39196206365814,-14.30775729198765M-69.39196206365814,-20.65332003995638L-69.39196206365814,-14.30775729198765M-69.39196206365814,-14.30775729198765L-71.8329992955849,-11.983922872697718M-235.55968545401555,-57.56879049234436L-235.55968545401555,27.193827430638883M-235.55968545401555,27.193827430638883L-138.7326249664621,40.755019481825805M48.24219013718884,-4.177973977175721L-69.39196206365814,-20.65332003995638M-69.39196206365814,-20.65332003995638L-71.8329992955849,-18.329485620666453" style="fill:none;stroke:rgb(0,0,0);stroke-width:1;stroke-linecap:round"></path><path d="M-69.39196206365816,-20.653320039956384L-69.39196206365816,-14.30775729198765L-71.83299929558493,-18.329485620666453zM-69.39196206365816,-14.30775729198765L-71.83299929558493,-11.983922872697722L-71.83299929558493,-18.329485620666453z" style="fill:rgb(153,221,255); fill-opacity: 0.4"></path><path d="M-138.7326249664621,-44.00759844115745L-106.12579174401571,-75.04886252157382L-202.95285223156915,-88.61005457276075zM51.04126339137599,27.36225133168542L-66.59288880947102,10.886905268904764L-66.59288880947102,-58.82623014121006z" style="fill:rgb(238,238,238); fill-opacity: 0.4"></path><path d="M-71.8329992955849,-18.329485620666453L-71.8329992955849,-11.983922872697718M-71.8329992955849,-11.983922872697718L45.801152905262086,4.491423190082939" style="fill:none;stroke:rgb(0,0,0);stroke-width:1;stroke-linecap:round"></path><path d="M-307.00625074086815,38.27840664555306L-283.70053537884405,41.542507407502065L-283.70053537884405,-72.92395445992267z" style="fill:rgb(238,238,238); fill-opacity: 0.4"></path><path d="M-71.8329992955849,-18.329485620666453L45.801152905262086,-1.854139557885792M51.04126339137599,-42.3508840784294L-66.59288880947099,-58.82623014121006M-66.59288880947099,-58.82623014121006L-93.41042507052462,-33.29629844295327" style="fill:none;stroke:rgb(0,0,0);stroke-width:1;stroke-linecap:round"></path><path d="M48.24219013718884,2.1675887707930084L-69.39196206365816,-14.30775729198765L-69.39196206365816,-20.653320039956384zM-71.83299929558493,-11.983922872697722L-69.39196206365816,-14.30775729198765L48.24219013718884,2.1675887707930084z" style="fill:rgb(153,221,255); fill-opacity: 0.4"></path><path d="M-93.41042507052462,36.41683696716156L-66.59288880947102,10.886905268904764L51.04126339137599,27.36225133168542zM-307.00625074086815,-76.18805522187168L-307.00625074086815,38.27840664555306L-283.70053537884405,-72.92395445992267zM-235.55968545401555,-57.56879049234437L-138.7326249664621,-44.00759844115745L-202.95285223156915,-88.61005457276075z" style="fill:rgb(238,238,238); fill-opacity: 0.4"></path><path d="M-71.83299929558493,-18.329485620666453L45.801152905262086,-1.8541395578857938L-69.39196206365816,-20.653320039956384zM-71.83299929558493,-18.329485620666453L-71.83299929558493,-11.983922872697722L45.801152905262086,-1.8541395578857938z" style="fill:rgb(153,221,255); fill-opacity: 0.4"></path><path d="M-66.59288880947102,-58.82623014121006L-66.59288880947102,10.886905268904764L-93.41042507052462,-33.29629844295327z" style="fill:rgb(238,238,238); fill-opacity: 0.4"></path><path d="M51.04126339137599,-42.3508840784294L51.04126339137599,27.362251331685428M51.04126339137599,27.362251331685428L24.22372713032237,52.89218302994222" style="fill:none;stroke:rgb(0,0,0);stroke-width:1;stroke-linecap:round"></path><path d="M51.04126339137599,-42.3508840784294L51.04126339137599,27.36225133168542L-66.59288880947102,-58.82623014121006z" style="fill:rgb(238,238,238); fill-opacity: 0.4"></path><path d="M48.24219013718884,-4.177973977175724L48.24219013718884,2.1675887707930084L-69.39196206365816,-20.653320039956384z" style="fill:rgb(153,221,255); fill-opacity: 0.4"></path><path d="M-307.00625074086815,-76.18805522187168L-283.70053537884405,-72.92395445992268" style="fill:none;stroke:rgb(0,0,0);stroke-width:1;stroke-linecap:round"></path><path d="M45.801152905262086,4.491423190082938L-71.83299929558493,-11.983922872697722L48.24219013718884,2.1675887707930084z" style="fill:rgb(153,221,255); fill-opacity: 0.4"></path><path d="M-138.7326249664621,-44.00759844115745L-138.7326249664621,40.7550194818258L-106.12579174401571,-75.04886252157382z" style="fill:rgb(238,238,238); fill-opacity: 0.4"></path><path d="M45.801152905262086,-1.8541395578857938L48.24219013718884,-4.177973977175724L-69.39196206365816,-20.653320039956384zM-71.83299929558493,-11.983922872697722L45.801152905262086,4.491423190082938L45.801152905262086,-1.8541395578857938z" style="fill:rgb(153,221,255); fill-opacity: 0.4"></path><path d="M-66.59288880947102,10.886905268904764L-93.41042507052462,36.41683696716156L-93.41042507052462,-33.29629844295327z" style="fill:rgb(238,238,238); fill-opacity: 0.4"></path><path d="M-235.55968545401555,-57.56879049234436L-138.7326249664621,-44.00759844115745" style="fill:none;stroke:rgb(0,0,0);stroke-width:1;stroke-linecap:round"></path><path d="M-235.55968545401555,-57.56879049234437L-235.55968545401555,27.193827430638883L-138.7326249664621,-44.00759844115745zM-235.55968545401555,27.193827430638883L-138.7326249664621,40.7550194818258L-138.7326249664621,-44.00759844115745z" style="fill:rgb(238,238,238); fill-opacity: 0.4"></path><path d="M-138.7326249664621,-44.00759844115745L-138.7326249664621,40.755019481825805M48.24219013718884,-4.177973977175721L48.24219013718884,2.16758877079301M48.24219013718884,2.16758877079301L45.801152905262086,4.491423190082939M48.24218813567548,-4.177973946781557L48.24218813567548,2.1675888011871747M48.24218813567548,2.1675888011871747L45.80115090374872,4.491423220477105M48.24218813567548,2.1675888011871747L87.36707422587423,7.233018151541202M48.24219013718884,-4.177973977175721L45.801152905262086,-1.854139557885792M48.24218813567548,-4.177973946781557L45.80115090374872,-1.8541395274916275M48.24218813567548,-4.177973946781557L87.36707422587423,7.233018151541202" style="fill:none;stroke:rgb(0,0,0);stroke-width:1;stroke-linecap:round"></path><path d="M48.242189975569204,-4.177973999811493L48.242189975569204,2.1675887481572396L45.80115274364244,4.491423167447169z" style="fill:rgb(255,187,187); fill-opacity: 0.4"></path><path d="M45.801152905262086,4.491423190082938L48.24219013718884,2.1675887707930084L48.24219013718884,-4.177973977175724z" style="fill:rgb(153,221,255); fill-opacity: 0.4"></path><path d="M-93.41042507052462,-33.29629844295327L-93.41042507052462,36.41683696716156M-93.41042507052462,36.41683696716156L24.22372713032237,52.89218302994222" style="fill:none;stroke:rgb(0,0,0);stroke-width:1;stroke-linecap:round"></path><path d="M48.242189975569204,-4.177973999811493L45.80115274364244,4.491423167447169L45.80115274364244,-1.8541395805215628z" style="fill:rgb(255,187,187); fill-opacity: 0.4"></path><path d="M45.801152905262086,-1.8541395578857938L45.801152905262086,4.491423190082938L48.24219013718884,-4.177973977175724z" style="fill:rgb(153,221,255); fill-opacity: 0.4"></path><path d="M45.801152905262086,-1.854139557885792L45.801152905262086,4.491423190082939M45.80115090374872,4.491423220477105L45.80115090374872,-1.8541395274916275M45.80115090374872,4.491423220477105L87.36707422587423,7.233018151541202M216.73087152565512,46.08545224054293L90.4952770340966,28.405424240355583M90.4952770340966,-25.848067331858907L90.4952770340966,28.405424240355583M90.4952770340966,28.405424240355583L69.62482028348074,48.273816704448095M45.80115090374872,-1.8541395274916275L87.36707422587423,7.233018151541202" style="fill:none;stroke:rgb(0,0,0);stroke-width:1;stroke-linecap:round"></path><path d="M48.242189975569204,2.1675887481572396L48.242189975569204,-4.177973999811493L87.36707175698666,7.233017790341889z" style="fill:rgb(255,187,187); fill-opacity: 0.4"></path><path d="M51.04126339137599,-42.3508840784294L24.22372713032237,-16.820952380172606" style="fill:none;stroke:rgb(0,0,0);stroke-width:1;stroke-linecap:round"></path><path d="M45.80115274364244,4.491423167447169L48.242189975569204,2.1675887481572396L87.36707175698666,7.233017790341889z" style="fill:rgb(255,187,187); fill-opacity: 0.4"></path><path d="M24.223727130322374,52.89218302994222L-93.41042507052462,36.41683696716156L51.04126339137599,27.36225133168542z" style="fill:rgb(238,238,238); fill-opacity: 0.4"></path><path d="M48.242189975569204,-4.177973999811493L45.80115274364244,-1.8541395805215628L87.36707175698666,7.233017790341889zM45.80115274364244,-1.8541395805215628L45.80115274364244,4.491423167447169L87.36707175698666,7.233017790341889z" style="fill:rgb(255,187,187); fill-opacity: 0.4"></path><path d="M24.223727130322374,52.89218302994222L51.04126339137599,27.36225133168542L51.04126339137599,-42.3508840784294zM24.223727130322374,-16.820952380172606L51.04126339137599,-42.3508840784294L-66.59288880947102,-58.82623014121006zM-93.41042507052462,-33.29629844295327L24.223727130322374,-16.820952380172606L-66.59288880947102,-58.82623014121006z" style="fill:rgb(238,238,238); fill-opacity: 0.4"></path><path d="M216.73087152565512,-8.168039331671565L90.4952770340966,-25.848067331858907M90.4952770340966,-25.848067331858907L69.62482028348074,-5.979674867766395" style="fill:none;stroke:rgb(0,0,0);stroke-width:1;stroke-linecap:round"></path><path d="M216.73087152565517,46.08545224054293L90.4952770340966,28.40542424035558L90.4952770340966,-25.848067331858918z" style="fill:rgb(238,238,238); fill-opacity: 0.4"></path><path d="M-93.41042507052462,-33.29629844295327L24.22372713032237,-16.820952380172606" style="fill:none;stroke:rgb(0,0,0);stroke-width:1;stroke-linecap:round"></path><path d="M-93.41042507052462,-33.29629844295327L-93.41042507052462,36.41683696716156L24.223727130322374,-16.820952380172606zM90.4952770340966,-25.848067331858918L90.4952770340966,28.40542424035558L69.62482028348074,-5.979674867766395zM69.62482028348074,48.273816704448095L90.4952770340966,28.40542424035558L216.73087152565517,46.08545224054293zM-93.41042507052462,36.41683696716156L24.223727130322374,52.89218302994222L24.223727130322374,-16.820952380172606zM24.223727130322374,-16.820952380172606L24.223727130322374,52.89218302994222L51.04126339137599,-42.3508840784294z" style="fill:rgb(238,238,238); fill-opacity: 0.4"></path><path d="M24.22372713032237,-16.820952380172606L24.22372713032237,52.89218302994222" style="fill:none;stroke:rgb(0,0,0);stroke-width:1;stroke-linecap:round"></path><path d="M90.4952770340966,28.40542424035558L69.62482028348074,48.273816704448095L69.62482028348074,-5.979674867766395z" style="fill:rgb(238,238,238); fill-opacity: 0.4"></path><path d="M203.37752059054083,34.8203692590972L77.14192609898231,17.14034125890985M77.14192609898231,10.794778510941118L77.14192609898231,17.14034125890985M77.14192609898231,17.14034125890985L74.70088886705557,19.46417567819978" style="fill:none;stroke:rgb(0,0,0);stroke-width:1;stroke-linecap:round"></path><path d="M216.73087152565517,-8.168039331671565L216.73087152565517,46.08545224054293L90.4952770340966,-25.848067331858918z" style="fill:rgb(238,238,238); fill-opacity: 0.4"></path><path d="M203.37752059054083,28.474806511128467L77.14192609898231,10.794778510941118M77.14192609898231,10.794778510941118L74.70088886705557,13.118612930231047M216.73087152565512,-8.168039331671565L216.73087152565512,46.08545224054293M216.73087152565512,46.08545224054293L195.86041477503926,65.95384470463544" style="fill:none;stroke:rgb(0,0,0);stroke-width:1;stroke-linecap:round"></path><path d="M77.14192609898232,10.794778510941118L77.14192609898232,17.14034125890985L74.70088886705557,13.118612930231048zM77.14192609898232,17.14034125890985L74.70088886705557,19.46417567819978L74.70088886705557,13.118612930231048z" style="fill:rgb(153,221,255); fill-opacity: 0.4"></path><path d="M74.70088886705557,13.118612930231047L74.70088886705557,19.46417567819978M74.70088886705557,19.46417567819978L200.9364833586141,37.14420367838713M74.70088886705557,13.118612930231047L200.9364833586141,30.798640930418394M69.62482028348074,-5.979674867766395L69.62482028348074,48.273816704448095M69.62482028348074,48.273816704448095L195.86041477503926,65.95384470463544" style="fill:none;stroke:rgb(0,0,0);stroke-width:1;stroke-linecap:round"></path><path d="M203.37752059054088,34.8203692590972L77.14192609898232,17.14034125890985L77.14192609898232,10.794778510941118zM74.70088886705557,19.46417567819978L77.14192609898232,17.14034125890985L203.37752059054088,34.8203692590972z" style="fill:rgb(153,221,255); fill-opacity: 0.4"></path><path d="M385.394021248081,69.70770570798065L259.15842675652254,52.0276777077933M259.15842675652254,-2.225813864421193L259.15842675652254,52.0276777077933M259.15842675652254,52.0276777077933L238.2879700059067,71.89607017188582" style="fill:none;stroke:rgb(0,0,0);stroke-width:1;stroke-linecap:round"></path><path d="M74.70088886705557,13.118612930231048L200.9364833586141,30.798640930418394L77.14192609898232,10.794778510941118z" style="fill:rgb(153,221,255); fill-opacity: 0.4"></path><path d="M195.86041477503932,65.95384470463544L69.62482028348074,48.273816704448095L216.73087152565517,46.08545224054293z" style="fill:rgb(238,238,238); fill-opacity: 0.4"></path><path d="M74.70088886705557,13.118612930231048L74.70088886705557,19.46417567819978L200.9364833586141,30.798640930418394z" style="fill:rgb(153,221,255); fill-opacity: 0.4"></path><path d="M216.73087152565512,-8.168039331671565L195.86041477503926,11.700353132420952" style="fill:none;stroke:rgb(0,0,0);stroke-width:1;stroke-linecap:round"></path><path d="M195.86041477503932,11.700353132420954L216.73087152565517,-8.168039331671565L90.4952770340966,-25.848067331858918zM195.86041477503932,65.95384470463544L216.73087152565517,46.08545224054293L216.73087152565517,-8.168039331671565zM69.62482028348074,-5.979674867766395L195.86041477503932,11.700353132420954L90.4952770340966,-25.848067331858918z" style="fill:rgb(238,238,238); fill-opacity: 0.4"></path><path d="M69.62482028348074,-5.979674867766395L195.86041477503926,11.700353132420952" style="fill:none;stroke:rgb(0,0,0);stroke-width:1;stroke-linecap:round"></path><path d="M203.37752059054088,28.474806511128467L203.37752059054088,34.8203692590972L77.14192609898232,10.794778510941118zM200.9364833586141,37.14420367838713L74.70088886705557,19.46417567819978L203.37752059054088,34.8203692590972zM200.9364833586141,30.798640930418394L203.37752059054088,28.474806511128467L77.14192609898232,10.794778510941118zM74.70088886705557,19.46417567819978L200.9364833586141,37.14420367838713L200.9364833586141,30.798640930418394z" style="fill:rgb(153,221,255); fill-opacity: 0.4"></path><path d="M69.62482028348074,-5.979674867766395L69.62482028348074,48.273816704448095L195.86041477503932,11.700353132420954z" style="fill:rgb(238,238,238); fill-opacity: 0.4"></path><path d="M385.394021248081,15.45421413576615L259.15842675652254,-2.225813864421193M259.15842675652254,-2.225813864421193L238.2879700059067,17.64257859967132" style="fill:none;stroke:rgb(0,0,0);stroke-width:1;stroke-linecap:round"></path><path d="M385.394021248081,69.70770570798064L259.1584267565225,52.0276777077933L259.1584267565225,-2.225813864421196z" style="fill:rgb(238,238,238); fill-opacity: 0.4"></path><path d="M203.37752059054083,28.474806511128467L203.37752059054083,34.8203692590972M203.37752059054083,34.8203692590972L200.9364833586141,37.14420367838713M203.37752945170945,28.47480788842161L203.37752945170945,34.820370636390344M203.37752945170945,34.820370636390344L200.93649241377886,37.14420487099851M203.37752945170945,34.820370636390344L244.58456291799325,38.75173119782022" style="fill:none;stroke:rgb(0,0,0);stroke-width:1;stroke-linecap:round"></path><path d="M69.62482028348074,48.273816704448095L195.86041477503932,65.95384470463544L195.86041477503932,11.700353132420954z" style="fill:rgb(238,238,238); fill-opacity: 0.4"></path><path d="M203.37752059054083,28.474806511128467L200.9364833586141,30.798640930418394M203.37752945170945,28.47480788842161L200.93649241377886,30.798642123029776M203.37752945170945,28.47480788842161L244.58456291799325,38.75173119782022M373.7865693946418,77.62365393884629L247.55097490308322,59.943625938658954M247.55097490308322,53.59806319069022L247.55097490308322,59.943625938658954M247.55097490308322,59.943625938658954L245.10993767115647,62.26746035794888" style="fill:none;stroke:rgb(0,0,0);stroke-width:1;stroke-linecap:round"></path><path d="M200.9364833586141,37.14420367838713L203.37752059054088,34.8203692590972L203.37752059054088,28.474806511128467z" style="fill:rgb(153,221,255); fill-opacity: 0.4"></path><path d="M203.37752226184904,28.474806745204873L203.37752226184904,34.82036949317361L200.93648502992227,37.14420391246354z" style="fill:rgb(255,187,187); fill-opacity: 0.4"></path><path d="M259.1584267565225,-2.225813864421196L259.1584267565225,52.0276777077933L238.28797000590663,17.642578599671324z" style="fill:rgb(238,238,238); fill-opacity: 0.4"></path><path d="M373.7865693946418,71.27809119087756L247.55097490308322,53.59806319069022M247.55097490308322,53.59806319069022L245.10993767115647,55.92189760998015" style="fill:none;stroke:rgb(0,0,0);stroke-width:1;stroke-linecap:round"></path><path d="M238.28797000590663,71.89607017188581L259.1584267565225,52.0276777077933L385.394021248081,69.70770570798064z" style="fill:rgb(238,238,238); fill-opacity: 0.4"></path><path d="M200.9364833586141,30.798640930418394L200.9364833586141,37.14420367838713L203.37752059054088,28.474806511128467z" style="fill:rgb(153,221,255); fill-opacity: 0.4"></path><path d="M203.37752226184904,28.474806745204873L200.93648502992227,37.14420391246354L200.93648502992227,30.798641164494807z" style="fill:rgb(255,187,187); fill-opacity: 0.4"></path><path d="M200.9364833586141,30.798640930418394L200.9364833586141,37.14420367838713M200.93649241377886,37.14420487099851L200.93649241377886,30.798642123029776M200.93649241377886,37.14420487099851L244.58456291799325,38.75173119782022" style="fill:none;stroke:rgb(0,0,0);stroke-width:1;stroke-linecap:round"></path><path d="M195.86041477503932,11.700353132420954L195.86041477503932,65.95384470463544L216.73087152565517,-8.168039331671565z" style="fill:rgb(238,238,238); fill-opacity: 0.4"></path><path d="M247.55097490308322,53.598063190690205L247.55097490308322,59.94362593865894L245.10993767115647,55.92189760998014z" style="fill:rgb(153,221,255); fill-opacity: 0.4"></path><path d="M203.37752226184904,34.82036949317361L203.37752226184904,28.474806745204873L244.58455553413665,38.751730327931746z" style="fill:rgb(255,187,187); fill-opacity: 0.4"></path><path d="M247.55097490308322,59.94362593865894L245.10993767115647,62.26746035794888L245.10993767115647,55.92189760998014z" style="fill:rgb(153,221,255); fill-opacity: 0.4"></path><path d="M200.93649241377886,30.798642123029776L244.58456291799325,38.75173119782022" style="fill:none;stroke:rgb(0,0,0);stroke-width:1;stroke-linecap:round"></path><path d="M200.93648502992227,37.14420391246354L203.37752226184904,34.82036949317361L244.58455553413665,38.751730327931746z" style="fill:rgb(255,187,187); fill-opacity: 0.4"></path><path d="M245.10993767115647,55.92189760998015L245.10993767115647,62.26746035794888M245.10993767115647,62.26746035794888L371.345532162715,79.94748835813623M195.86041477503926,11.700353132420952L195.86041477503926,65.95384470463544" style="fill:none;stroke:rgb(0,0,0);stroke-width:1;stroke-linecap:round"></path><path d="M203.37752226184904,28.474806745204873L200.93648502992227,30.798641164494807L244.58455553413665,38.751730327931746z" style="fill:rgb(255,187,187); fill-opacity: 0.4"></path><path d="M245.10993767115647,55.92189760998015L371.345532162715,73.60192561016748" style="fill:none;stroke:rgb(0,0,0);stroke-width:1;stroke-linecap:round"></path><path d="M200.93648502992227,30.798641164494807L200.93648502992227,37.14420391246354L244.58455553413665,38.751730327931746z" style="fill:rgb(255,187,187); fill-opacity: 0.4"></path><path d="M259.1584267565225,52.0276777077933L238.28797000590663,71.89607017188581L238.28797000590663,17.642578599671324zM385.394021248081,15.454214135766149L385.394021248081,69.70770570798064L259.1584267565225,-2.225813864421196z" style="fill:rgb(238,238,238); fill-opacity: 0.4"></path><path d="M385.394021248081,15.45421413576615L385.394021248081,69.70770570798065M385.394021248081,69.70770570798065L364.52356449746514,89.57609817207316" style="fill:none;stroke:rgb(0,0,0);stroke-width:1;stroke-linecap:round"></path><path d="M373.7865693946418,77.62365393884629L247.55097490308322,59.94362593865894L247.55097490308322,53.598063190690205zM245.10993767115647,62.26746035794888L247.55097490308322,59.94362593865894L373.7865693946418,77.62365393884629z" style="fill:rgb(153,221,255); fill-opacity: 0.4"></path><path d="M238.2879700059067,17.64257859967132L238.2879700059067,71.89607017188582M238.2879700059067,71.89607017188582L364.52356449746514,89.57609817207316" style="fill:none;stroke:rgb(0,0,0);stroke-width:1;stroke-linecap:round"></path><path d="M245.10993767115647,55.92189760998014L371.345532162715,73.60192561016748L247.55097490308322,53.598063190690205zM245.10993767115647,55.92189760998014L245.10993767115647,62.26746035794888L371.345532162715,73.60192561016748z" style="fill:rgb(153,221,255); fill-opacity: 0.4"></path><path d="M545.4557268468675,92.12527698129949L427.8215746460205,75.64993091851882M427.8215746460205,21.396439346304327L427.8215746460205,75.64993091851882M427.8215746460205,75.64993091851882L406.95111789540465,95.51832338261134" style="fill:none;stroke:rgb(0,0,0);stroke-width:1;stroke-linecap:round"></path><path d="M373.7865693946418,71.27809119087756L373.7865693946418,77.62365393884629L247.55097490308322,53.598063190690205zM371.345532162715,79.94748835813621L245.10993767115647,62.26746035794888L373.7865693946418,77.62365393884629z" style="fill:rgb(153,221,255); fill-opacity: 0.4"></path><path d="M364.52356449746514,89.57609817207316L238.28797000590663,71.89607017188581L385.394021248081,69.70770570798064z" style="fill:rgb(238,238,238); fill-opacity: 0.4"></path><path d="M371.345532162715,73.60192561016748L373.7865693946418,71.27809119087756L247.55097490308322,53.598063190690205zM245.10993767115647,62.26746035794888L371.345532162715,79.94748835813621L371.345532162715,73.60192561016748z" style="fill:rgb(153,221,255); fill-opacity: 0.4"></path><path d="M385.394021248081,15.45421413576615L364.52356449746514,35.32260659985867" style="fill:none;stroke:rgb(0,0,0);stroke-width:1;stroke-linecap:round"></path><path d="M364.52356449746514,35.322606599858666L385.394021248081,15.454214135766149L259.1584267565225,-2.225813864421196zM364.52356449746514,89.57609817207316L385.394021248081,69.70770570798064L385.394021248081,15.454214135766149zM238.28797000590663,17.642578599671324L364.52356449746514,35.322606599858666L259.1584267565225,-2.225813864421196z" style="fill:rgb(238,238,238); fill-opacity: 0.4"></path><path d="M238.2879700059067,17.64257859967132L364.52356449746514,35.32260659985867M373.7865693946418,71.27809119087756L373.7865693946418,77.62365393884629M373.7865693946418,77.62365393884629L371.345532162715,79.94748835813623M373.78657498193286,71.27809253743848L373.78657498193286,77.62365528540722M373.78657498193286,77.62365528540722L371.3455375560099,79.94748988937891M373.78657498193286,77.62365528540722L414.9936082542204,81.55501612016535M373.7865693946418,71.27809119087756L371.345532162715,73.60192561016748M373.78657498193286,71.27809253743848L371.3455375560099,73.60192714141019M373.78657498193286,71.27809253743848L414.9936082542204,81.55501612016535" style="fill:none;stroke:rgb(0,0,0);stroke-width:1;stroke-linecap:round"></path><path d="M371.345532162715,79.94748835813621L373.7865693946418,77.62365393884629L373.7865693946418,71.27809119087756z" style="fill:rgb(153,221,255); fill-opacity: 0.4"></path><path d="M373.78657106594994,71.27809142495397L373.78657106594994,77.6236541729227L371.34553383402323,79.94748859221264z" style="fill:rgb(255,187,187); fill-opacity: 0.4"></path><path d="M238.28797000590663,17.642578599671324L238.28797000590663,71.89607017188581L364.52356449746514,35.322606599858666z" style="fill:rgb(238,238,238); fill-opacity: 0.4"></path><path d="M371.345532162715,73.60192561016748L371.345532162715,79.94748835813621L373.7865693946418,71.27809119087756z" style="fill:rgb(153,221,255); fill-opacity: 0.4"></path><path d="M373.78657106594994,71.27809142495397L371.34553383402323,79.94748859221264L371.34553383402323,73.6019258442439z" style="fill:rgb(255,187,187); fill-opacity: 0.4"></path><path d="M371.345532162715,73.60192561016748L371.345532162715,79.94748835813623M371.3455375560099,79.94748988937891L371.3455375560099,73.60192714141019M371.3455375560099,79.94748988937891L414.9936082542204,81.55501612016535" style="fill:none;stroke:rgb(0,0,0);stroke-width:1;stroke-linecap:round"></path><path d="M545.4557268468675,92.12527698129949L427.8215746460205,75.64993091851882L427.8215746460205,21.39643934630433z" style="fill:rgb(238,238,238); fill-opacity: 0.4"></path><path d="M545.4557268468675,37.871785409084985L427.8215746460205,21.396439346304327M427.8215746460205,21.396439346304327L406.95111789540465,41.26483181039685" style="fill:none;stroke:rgb(0,0,0);stroke-width:1;stroke-linecap:round"></path><path d="M373.78657106594994,77.6236541729227L373.78657106594994,71.27809142495397L414.99360433823756,81.55501500768085z" style="fill:rgb(255,187,187); fill-opacity: 0.4"></path><path d="M371.3455375560099,73.60192714141019L414.9936082542204,81.55501612016535" style="fill:none;stroke:rgb(0,0,0);stroke-width:1;stroke-linecap:round"></path><path d="M371.34553383402323,79.94748859221264L373.78657106594994,77.6236541729227L414.99360433823756,81.55501500768085zM373.78657106594994,71.27809142495397L371.34553383402323,73.6019258442439L414.99360433823756,81.55501500768085zM371.34553383402323,73.6019258442439L371.34553383402323,79.94748859221264L414.99360433823756,81.55501500768085z" style="fill:rgb(255,187,187); fill-opacity: 0.4"></path><path d="M238.28797000590663,71.89607017188581L364.52356449746514,89.57609817207316L364.52356449746514,35.322606599858666zM406.95111789540465,95.51832338261136L427.8215746460205,75.64993091851882L545.4557268468675,92.12527698129949zM427.8215746460205,21.39643934630433L427.8215746460205,75.64993091851882L406.95111789540465,41.26483181039685zM364.52356449746514,35.322606599858666L364.52356449746514,89.57609817207316L385.394021248081,15.454214135766149z" style="fill:rgb(238,238,238); fill-opacity: 0.4"></path><path d="M364.52356449746514,35.32260659985867L364.52356449746514,89.57609817207316" style="fill:none;stroke:rgb(0,0,0);stroke-width:1;stroke-linecap:round"></path><path d="M427.8215746460205,75.64993091851882L406.95111789540465,95.51832338261136L406.95111789540465,41.26483181039685z" style="fill:rgb(238,238,238); fill-opacity: 0.4"></path><path d="M545.4557268468675,37.871785409084985L545.4557268468675,92.12527698129949M545.4557268468675,92.12527698129949L524.5852700962516,111.993669445392" style="fill:none;stroke:rgb(0,0,0);stroke-width:1;stroke-linecap:round"></path><path d="M545.4557268468675,37.871785409084985L545.4557268468675,92.12527698129949L427.8215746460205,21.39643934630433z" style="fill:rgb(238,238,238); fill-opacity: 0.4"></path><path d="M406.95111789540465,41.26483181039685L406.95111789540465,95.51832338261134M406.95111789540465,95.51832338261134L524.5852700962516,111.993669445392M602.3244504947801,161.91698124182992L587.6201814696742,159.85756298398232M587.6201814696742,-1.4174375308690146L587.6201814696742,159.85756298398232M587.6201814696742,159.85756298398232L581.9801878710035,165.22676058479922" style="fill:none;stroke:rgb(0,0,0);stroke-width:1;stroke-linecap:round"></path><path d="M524.5852700962516,111.99366944539202L406.95111789540465,95.51832338261136L545.4557268468675,92.12527698129949z" style="fill:rgb(238,238,238); fill-opacity: 0.4"></path><path d="M602.3244504947801,0.6419807269785729L602.3244504947801,161.91698124182992M602.3244504947801,161.91698124182992L596.6844568961094,167.28617884264682M545.4557268468675,37.871785409084985L524.5852700962516,57.74017787317751" style="fill:none;stroke:rgb(0,0,0);stroke-width:1;stroke-linecap:round"></path><path d="M581.9801878710035,165.22676058479922L587.6201814696742,159.85756298398235L602.3244504947801,161.91698124182992zM524.5852700962516,111.99366944539202L545.4557268468675,92.12527698129949L545.4557268468675,37.871785409084985zM524.5852700962516,57.74017787317751L545.4557268468675,37.871785409084985L427.8215746460205,21.39643934630433zM406.95111789540465,41.26483181039685L524.5852700962516,57.74017787317751L427.8215746460205,21.39643934630433zM596.6844568961094,167.28617884264682L581.9801878710035,165.22676058479922L602.3244504947801,161.91698124182992z" style="fill:rgb(238,238,238); fill-opacity: 0.4"></path><path d="M581.9801878710035,3.9517600699478916L581.9801878710035,165.22676058479922M581.9801878710035,165.22676058479922L596.6844568961094,167.28617884264682M406.95111789540465,41.26483181039685L524.5852700962516,57.74017787317751M596.6844568961094,6.011178327795479L596.6844568961094,167.28617884264682M659.456271367732,169.9186244931161L644.7520023426262,167.85920623526852M644.7520023426262,6.58420572041718L644.7520023426262,167.85920623526852M644.7520023426262,167.85920623526852L639.1120087439555,173.22840383608545" style="fill:none;stroke:rgb(0,0,0);stroke-width:1;stroke-linecap:round"></path><path d="M406.95111789540465,41.26483181039685L406.95111789540465,95.51832338261136L524.5852700962516,57.74017787317751zM602.3244504947801,161.91698124182992L587.6201814696742,159.85756298398235L587.6201814696742,-1.4174375308690128z" style="fill:rgb(238,238,238); fill-opacity: 0.4"></path><path d="M544.494010396703,76.25954778065191L568.5362898000451,79.62680861347386M659.456271367732,8.643623978264769L659.456271367732,169.9186244931161M659.456271367732,169.9186244931161L653.8162777690613,175.28782209393302" style="fill:none;stroke:rgb(0,0,0);stroke-width:1;stroke-linecap:round"></path><path d="M639.1120087439555,173.22840383608545L644.7520023426262,167.85920623526852L659.456271367732,169.9186244931161zM406.95111789540465,95.51832338261136L524.5852700962516,111.99366944539202L524.5852700962516,57.74017787317751zM587.6201814696742,159.85756298398235L581.9801878710035,165.22676058479922L581.9801878710035,3.9517600699478934zM596.6844568961094,167.28617884264682L602.3244504947801,161.91698124182992L602.3244504947801,0.6419807269785649zM524.5852700962516,57.74017787317751L524.5852700962516,111.99366944539202L545.4557268468675,37.871785409084985zM653.8162777690613,175.28782209393302L639.1120087439555,173.22840383608545L659.456271367732,169.9186244931161z" style="fill:rgb(238,238,238); fill-opacity: 0.4"></path><path d="M639.1120087439555,11.953403321234086L639.1120087439555,173.22840383608545M639.1120087439555,173.22840383608545L653.8162777690613,175.28782209393302" style="fill:none;stroke:rgb(0,0,0);stroke-width:1;stroke-linecap:round"></path><path d="M566.6016527801804,83.10262919884742L568.5362898000451,84.91477757011447L582.6788070961288,81.6075502798397z" style="fill:rgb(0,0,0)"></path><path d="M524.5852700962516,57.74017787317751L524.5852700962516,111.993669445392" style="fill:none;stroke:rgb(0,0,0);stroke-width:1;stroke-linecap:round"></path><path d="M569.731961187505,74.21048883414778L567.3406184125851,76.487014802698L582.6788070961288,81.6075502798397zM567.3406184125851,76.487014802698L566.6016527801804,83.10262919884742L582.6788070961288,81.6075502798397z" style="fill:rgb(0,0,0)"></path><path d="M581.9801878710035,165.22676058479922L596.6844568961094,167.28617884264682L596.6844568961094,6.011178327795472z" style="fill:rgb(238,238,238); fill-opacity: 0.4"></path><path d="M653.8162777690613,14.012821579081674L653.8162777690613,175.28782209393302" style="fill:none;stroke:rgb(0,0,0);stroke-width:1;stroke-linecap:round"></path><path d="M659.456271367732,169.9186244931161L644.7520023426262,167.85920623526852L644.7520023426262,6.584205720417173z" style="fill:rgb(238,238,238); fill-opacity: 0.4"></path><path d="M716.588092240684,170.33875844354293L701.8838232155781,168.27934018569536M701.8838232155781,22.16735827256267L701.8838232155781,168.27934018569536M701.8838232155781,168.27934018569536L696.2438296169074,173.64853778651226M601.6258312696549,84.2611910319381L625.668110672997,87.62845186476004" style="fill:none;stroke:rgb(0,0,0);stroke-width:1;stroke-linecap:round"></path><path d="M602.3244504947801,0.6419807269785649L602.3244504947801,161.91698124182992L587.6201814696742,-1.4174375308690128zM587.6201814696742,-1.4174375308690128L587.6201814696742,159.85756298398235L581.9801878710035,3.9517600699478934z" style="fill:rgb(238,238,238); fill-opacity: 0.4"></path><path d="M716.588092240684,24.22677653041026L716.588092240684,170.33875844354293M716.588092240684,170.33875844354293L710.9480986420133,175.70795604435986" style="fill:none;stroke:rgb(0,0,0);stroke-width:1;stroke-linecap:round"></path><path d="M696.2438296169074,173.64853778651226L701.8838232155781,168.2793401856954L716.588092240684,170.33875844354293zM644.7520023426262,167.85920623526852L639.1120087439555,173.22840383608545L639.1120087439555,11.95340332123408zM653.8162777690613,175.28782209393302L659.456271367732,169.9186244931161L659.456271367732,8.64362397826476z" style="fill:rgb(238,238,238); fill-opacity: 0.4"></path><path d="M623.7334736531325,91.10427245013362L625.668110672997,92.91642082140065L639.8106279690808,89.60919353112587zM626.863782060457,82.21213208543395L624.4724392855371,84.48865805398417L639.8106279690808,89.60919353112587z" style="fill:rgb(0,0,0)"></path><path d="M710.9480986420133,175.70795604435986L696.2438296169074,173.64853778651226L716.588092240684,170.33875844354293zM596.6844568961094,6.011178327795472L596.6844568961094,167.28617884264682L602.3244504947801,0.6419807269785649z" style="fill:rgb(238,238,238); fill-opacity: 0.4"></path><path d="M696.2438296169074,27.536555873379577L696.2438296169074,173.64853778651226M696.2438296169074,173.64853778651226L710.9480986420133,175.70795604435986" style="fill:none;stroke:rgb(0,0,0);stroke-width:1;stroke-linecap:round"></path><path d="M581.9801878710035,3.9517600699478934L581.9801878710035,165.22676058479922L596.6844568961094,6.011178327795472z" style="fill:rgb(238,238,238); fill-opacity: 0.4"></path><path d="M624.4724392855371,84.48865805398417L623.7334736531325,91.10427245013362L639.8106279690808,89.60919353112587z" style="fill:rgb(0,0,0)"></path><path d="M639.1120087439555,173.22840383608545L653.8162777690613,175.28782209393302L653.8162777690613,14.012821579081667z" style="fill:rgb(238,238,238); fill-opacity: 0.4"></path><path d="M710.9480986420133,29.595974131227162L710.9480986420133,175.70795604435986M602.3244504947801,0.6419807269785729L587.6201814696742,-1.4174375308690146M587.6201814696742,-1.4174375308690146L581.9801878710035,3.9517600699478916" style="fill:none;stroke:rgb(0,0,0);stroke-width:1;stroke-linecap:round"></path><path d="M716.588092240684,170.33875844354293L701.8838232155781,168.2793401856954L701.8838232155781,22.167358272562684z" style="fill:rgb(238,238,238); fill-opacity: 0.4"></path><path d="M658.7576521426068,92.2628342832243L682.799931545949,95.63009511604622" style="fill:none;stroke:rgb(0,0,0);stroke-width:1;stroke-linecap:round"></path><path d="M659.456271367732,8.64362397826476L659.456271367732,169.9186244931161L644.7520023426262,6.584205720417173zM644.7520023426262,6.584205720417173L644.7520023426262,167.85920623526852L639.1120087439555,11.95340332123408z" style="fill:rgb(238,238,238); fill-opacity: 0.4"></path><path d="M602.3244504947801,0.6419807269785729L596.6844568961094,6.011178327795479" style="fill:none;stroke:rgb(0,0,0);stroke-width:1;stroke-linecap:round"></path><path d="M596.6844568961094,6.011178327795472L602.3244504947801,0.6419807269785649L587.6201814696742,-1.4174375308690128zM701.8838232155781,168.2793401856954L696.2438296169074,173.64853778651226L696.2438296169074,27.536555873379587zM710.9480986420133,175.70795604435986L716.588092240684,170.33875844354293L716.588092240684,24.22677653041025zM581.9801878710035,3.9517600699478934L596.6844568961094,6.011178327795472L587.6201814696742,-1.4174375308690128z" style="fill:rgb(238,238,238); fill-opacity: 0.4"></path><path d="M680.8652945260844,99.1059157014198L682.799931545949,100.91806407268683L696.9424488420327,97.61083678241206zM683.9956029334089,90.21377533672013L681.6042601584891,92.49030130527038L696.9424488420327,97.61083678241206z" style="fill:rgb(0,0,0)"></path><path d="M581.9801878710035,3.9517600699478916L596.6844568961094,6.011178327795479" style="fill:none;stroke:rgb(0,0,0);stroke-width:1;stroke-linecap:round"></path><path d="M653.8162777690613,14.012821579081667L653.8162777690613,175.28782209393302L659.456271367732,8.64362397826476zM639.1120087439555,11.95340332123408L639.1120087439555,173.22840383608545L653.8162777690613,14.012821579081667z" style="fill:rgb(238,238,238); fill-opacity: 0.4"></path><path d="M681.6042601584891,92.49030130527038L680.8652945260844,99.1059157014198L696.9424488420327,97.61083678241206z" style="fill:rgb(0,0,0)"></path><path d="M696.2438296169074,173.64853778651226L710.9480986420133,175.70795604435986L710.9480986420133,29.595974131227155z" style="fill:rgb(238,238,238); fill-opacity: 0.4"></path><path d="M659.456271367732,8.643623978264769L644.7520023426262,6.58420572041718M644.7520023426262,6.58420572041718L639.1120087439555,11.953403321234086" style="fill:none;stroke:rgb(0,0,0);stroke-width:1;stroke-linecap:round"></path><path d="M716.588092240684,24.22677653041025L716.588092240684,170.33875844354293L701.8838232155781,22.167358272562684zM701.8838232155781,22.167358272562684L701.8838232155781,168.2793401856954L696.2438296169074,27.536555873379587z" style="fill:rgb(238,238,238); fill-opacity: 0.4"></path><path d="M659.456271367732,8.643623978264769L653.8162777690613,14.012821579081674" style="fill:none;stroke:rgb(0,0,0);stroke-width:1;stroke-linecap:round"></path><path d="M653.8162777690613,14.012821579081667L659.456271367732,8.64362397826476L644.7520023426262,6.584205720417173zM639.1120087439555,11.95340332123408L653.8162777690613,14.012821579081667L644.7520023426262,6.584205720417173zM710.9480986420133,29.595974131227155L710.9480986420133,175.70795604435986L716.588092240684,24.22677653041025z" style="fill:rgb(238,238,238); fill-opacity: 0.4"></path><path d="M639.1120087439555,11.953403321234086L653.8162777690613,14.012821579081674" style="fill:none;stroke:rgb(0,0,0);stroke-width:1;stroke-linecap:round"></path><path d="M696.2438296169074,27.536555873379587L696.2438296169074,173.64853778651226L710.9480986420133,29.595974131227155z" style="fill:rgb(238,238,238); fill-opacity: 0.4"></path><path d="M716.588092240684,24.22677653041026L701.8838232155781,22.16735827256267M701.8838232155781,22.16735827256267L696.2438296169074,27.536555873379577M716.588092240684,24.22677653041026L710.9480986420133,29.595974131227162" style="fill:none;stroke:rgb(0,0,0);stroke-width:1;stroke-linecap:round"></path><path d="M710.9480986420133,29.595974131227155L716.588092240684,24.22677653041025L701.8838232155781,22.167358272562684zM696.2438296169074,27.536555873379587L710.9480986420133,29.595974131227155L701.8838232155781,22.167358272562684z" style="fill:rgb(238,238,238); fill-opacity: 0.4"></path><path d="M696.2438296169074,27.536555873379577L710.9480986420133,29.595974131227162" style="fill:none;stroke:rgb(0,0,0);stroke-width:1;stroke-linecap:round"></path></svg>